<?xml version="1.0" encoding="UTF-8" standalone="no"?>
<svg width="32px" height="33px" viewBox="0 0 32 33" version="1.1" xmlns="http://www.w3.org/2000/svg" xmlns:xlink="http://www.w3.org/1999/xlink" xmlns:sketch="http://www.bohemiancoding.com/sketch/ns">
    <title>Slice 1</title>
    <description>Created with Sketch (http://www.bohemiancoding.com/sketch)</description>
    <defs></defs>
    <g id="Page 1" fill="#D8D8D8" fill-rule="evenodd">
        <g id="Layer_1" fill="#000000">
            <path d="M15.9850987,0.0496059957 C7.16051502,0.0496059957 0.00775965665,7.4101606 0.00775965665,16.490955 C0.00775965665,25.5702655 7.16058369,32.9323041 15.9850987,32.9323041 C24.8081717,32.9323041 31.9624378,25.5701949 31.9624378,16.490955 C31.9624378,7.4101606 24.8081717,0.0496059957 15.9850987,0.0496059957 L15.9850987,0.0496059957 Z M23.0072446,18.0991221 L13.3837597,18.0991221 L17.8210472,22.6660535 C18.431794,23.2929829 18.431794,24.3133683 17.8210472,24.9403683 C17.5163605,25.253833 17.1154678,25.4121199 16.7151931,25.4121199 C16.3158112,25.4121199 15.9155365,25.253833 15.6109185,24.9403683 L7.39941631,16.4902484 L15.6109871,8.04097645 C16.2209785,7.41326981 17.2103004,7.41326981 17.8210472,8.04097645 C18.431794,8.67101499 18.431794,9.68829122 17.8210472,10.3159979 L13.3837597,14.882152 L23.0072446,14.882152 C23.8702833,14.882152 24.5692017,15.6020749 24.5692017,16.4902484 C24.5692017,17.3791285 23.8702833,18.0991221 23.0072446,18.0991221 L23.0072446,18.0991221 Z M23.0072446,18.0991221" id="Shape" fill="#B9B9B9"></path>
        </g>
    </g>
</svg>