<?xml version="1.0" encoding="UTF-8" standalone="no"?>
<svg width="32px" height="32px" viewBox="0 0 32 32" version="1.1" xmlns="http://www.w3.org/2000/svg" xmlns:xlink="http://www.w3.org/1999/xlink" xmlns:sketch="http://www.bohemiancoding.com/sketch/ns">
    <title>Slice 1</title>
    <description>Created with Sketch (http://www.bohemiancoding.com/sketch)</description>
    <defs></defs>
    <g id="Page 1" fill="#D8D8D8" fill-rule="evenodd">
        <g id="Layer_1" fill="#000000">
            <path d="M31.9624378,15.9912976 C31.9624378,7.18711777 24.8096824,0.0481713062 15.9850987,0.0481713062 C7.16202575,0.0481713062 0.00775965665,7.1871863 0.00775965665,15.9912976 C0.00769098712,24.7969165 7.16202575,31.934424 15.9850987,31.934424 C24.8096824,31.934424 31.9624378,24.7969165 31.9624378,15.9912976 Z M8.96288412,14.431863 L18.5863691,14.431863 L14.1490815,10.0033233 C13.5383348,9.39539186 13.5383348,8.40592719 14.1490815,7.79792719 C14.4537682,7.49396146 14.8546609,7.34047109 15.2549356,7.34047109 C15.6543176,7.34047109 16.0545923,7.49396146 16.3592103,7.79792719 L24.5707124,15.9919829 L16.3592103,24.1852163 C15.7491502,24.7939015 14.759897,24.7939015 14.1490815,24.1852163 C13.5383348,23.5742698 13.5383348,22.5878201 14.1490815,21.9791349 L18.5863691,17.5514176 L8.96288412,17.551349 C8.09984549,17.551349 7.40092704,16.853242 7.40092704,15.9920514 C7.40092704,15.1300385 8.09984549,14.431863 8.96288412,14.431863 L8.96288412,14.431863 Z M8.96288412,14.431863" id="Shape" fill="#B9B9B9"></path>
        </g>
    </g>
</svg>